<svg xmlns="http://www.w3.org/2000/svg" width="800" height="600" viewBox="0 0 800 600">
  <defs>
    <linearGradient id="bg" x1="0%" y1="0%" x2="100%" y2="100%">
      <stop offset="0%" stop-color="#1a1a2e"/>
      <stop offset="100%" stop-color="#e94560"/>
    </linearGradient>
  </defs>
  <rect width="800" height="600" fill="url(#bg)"/>
  <g opacity="0.12">
    <circle cx="50" cy="50" r="1.5" fill="white"/><circle cx="98" cy="50" r="1.5" fill="white"/><circle cx="146" cy="50" r="1.5" fill="white"/><circle cx="194" cy="50" r="1.5" fill="white"/><circle cx="242" cy="50" r="1.5" fill="white"/><circle cx="290" cy="50" r="1.5" fill="white"/><circle cx="338" cy="50" r="1.5" fill="white"/><circle cx="386" cy="50" r="1.5" fill="white"/><circle cx="434" cy="50" r="1.5" fill="white"/><circle cx="482" cy="50" r="1.5" fill="white"/><circle cx="530" cy="50" r="1.5" fill="white"/><circle cx="578" cy="50" r="1.5" fill="white"/><circle cx="626" cy="50" r="1.5" fill="white"/><circle cx="674" cy="50" r="1.5" fill="white"/><circle cx="722" cy="50" r="1.5" fill="white"/><circle cx="770" cy="50" r="1.5" fill="white"/><circle cx="50" cy="98" r="1.5" fill="white"/><circle cx="98" cy="98" r="1.5" fill="white"/><circle cx="146" cy="98" r="1.5" fill="white"/><circle cx="194" cy="98" r="1.5" fill="white"/><circle cx="242" cy="98" r="1.5" fill="white"/><circle cx="290" cy="98" r="1.5" fill="white"/><circle cx="338" cy="98" r="1.5" fill="white"/><circle cx="386" cy="98" r="1.5" fill="white"/><circle cx="434" cy="98" r="1.5" fill="white"/><circle cx="482" cy="98" r="1.5" fill="white"/><circle cx="530" cy="98" r="1.5" fill="white"/><circle cx="578" cy="98" r="1.5" fill="white"/><circle cx="626" cy="98" r="1.5" fill="white"/><circle cx="674" cy="98" r="1.5" fill="white"/><circle cx="722" cy="98" r="1.5" fill="white"/><circle cx="770" cy="98" r="1.5" fill="white"/><circle cx="50" cy="146" r="1.5" fill="white"/><circle cx="98" cy="146" r="1.5" fill="white"/><circle cx="146" cy="146" r="1.5" fill="white"/><circle cx="194" cy="146" r="1.5" fill="white"/><circle cx="242" cy="146" r="1.5" fill="white"/><circle cx="290" cy="146" r="1.5" fill="white"/><circle cx="338" cy="146" r="1.5" fill="white"/><circle cx="386" cy="146" r="1.5" fill="white"/><circle cx="434" cy="146" r="1.5" fill="white"/><circle cx="482" cy="146" r="1.5" fill="white"/><circle cx="530" cy="146" r="1.5" fill="white"/><circle cx="578" cy="146" r="1.5" fill="white"/><circle cx="626" cy="146" r="1.5" fill="white"/><circle cx="674" cy="146" r="1.5" fill="white"/><circle cx="722" cy="146" r="1.5" fill="white"/><circle cx="770" cy="146" r="1.5" fill="white"/><circle cx="50" cy="194" r="1.5" fill="white"/><circle cx="98" cy="194" r="1.5" fill="white"/><circle cx="146" cy="194" r="1.5" fill="white"/><circle cx="194" cy="194" r="1.5" fill="white"/><circle cx="242" cy="194" r="1.5" fill="white"/><circle cx="290" cy="194" r="1.5" fill="white"/><circle cx="338" cy="194" r="1.5" fill="white"/><circle cx="386" cy="194" r="1.5" fill="white"/><circle cx="434" cy="194" r="1.5" fill="white"/><circle cx="482" cy="194" r="1.5" fill="white"/><circle cx="530" cy="194" r="1.5" fill="white"/><circle cx="578" cy="194" r="1.5" fill="white"/><circle cx="626" cy="194" r="1.5" fill="white"/><circle cx="674" cy="194" r="1.5" fill="white"/><circle cx="722" cy="194" r="1.5" fill="white"/><circle cx="770" cy="194" r="1.5" fill="white"/><circle cx="50" cy="242" r="1.5" fill="white"/><circle cx="98" cy="242" r="1.5" fill="white"/><circle cx="146" cy="242" r="1.5" fill="white"/><circle cx="194" cy="242" r="1.5" fill="white"/><circle cx="242" cy="242" r="1.5" fill="white"/><circle cx="290" cy="242" r="1.5" fill="white"/><circle cx="338" cy="242" r="1.5" fill="white"/><circle cx="386" cy="242" r="1.5" fill="white"/><circle cx="434" cy="242" r="1.5" fill="white"/><circle cx="482" cy="242" r="1.5" fill="white"/><circle cx="530" cy="242" r="1.5" fill="white"/><circle cx="578" cy="242" r="1.5" fill="white"/><circle cx="626" cy="242" r="1.5" fill="white"/><circle cx="674" cy="242" r="1.5" fill="white"/><circle cx="722" cy="242" r="1.5" fill="white"/><circle cx="770" cy="242" r="1.5" fill="white"/><circle cx="50" cy="290" r="1.5" fill="white"/><circle cx="98" cy="290" r="1.5" fill="white"/><circle cx="146" cy="290" r="1.5" fill="white"/><circle cx="194" cy="290" r="1.5" fill="white"/><circle cx="242" cy="290" r="1.5" fill="white"/><circle cx="290" cy="290" r="1.5" fill="white"/><circle cx="338" cy="290" r="1.5" fill="white"/><circle cx="386" cy="290" r="1.5" fill="white"/><circle cx="434" cy="290" r="1.5" fill="white"/><circle cx="482" cy="290" r="1.5" fill="white"/><circle cx="530" cy="290" r="1.5" fill="white"/><circle cx="578" cy="290" r="1.5" fill="white"/><circle cx="626" cy="290" r="1.5" fill="white"/><circle cx="674" cy="290" r="1.5" fill="white"/><circle cx="722" cy="290" r="1.5" fill="white"/><circle cx="770" cy="290" r="1.5" fill="white"/><circle cx="50" cy="338" r="1.5" fill="white"/><circle cx="98" cy="338" r="1.5" fill="white"/><circle cx="146" cy="338" r="1.5" fill="white"/><circle cx="194" cy="338" r="1.5" fill="white"/><circle cx="242" cy="338" r="1.5" fill="white"/><circle cx="290" cy="338" r="1.5" fill="white"/><circle cx="338" cy="338" r="1.5" fill="white"/><circle cx="386" cy="338" r="1.5" fill="white"/><circle cx="434" cy="338" r="1.5" fill="white"/><circle cx="482" cy="338" r="1.5" fill="white"/><circle cx="530" cy="338" r="1.5" fill="white"/><circle cx="578" cy="338" r="1.5" fill="white"/><circle cx="626" cy="338" r="1.5" fill="white"/><circle cx="674" cy="338" r="1.5" fill="white"/><circle cx="722" cy="338" r="1.5" fill="white"/><circle cx="770" cy="338" r="1.5" fill="white"/><circle cx="50" cy="386" r="1.5" fill="white"/><circle cx="98" cy="386" r="1.5" fill="white"/><circle cx="146" cy="386" r="1.5" fill="white"/><circle cx="194" cy="386" r="1.5" fill="white"/><circle cx="242" cy="386" r="1.5" fill="white"/><circle cx="290" cy="386" r="1.5" fill="white"/><circle cx="338" cy="386" r="1.5" fill="white"/><circle cx="386" cy="386" r="1.5" fill="white"/><circle cx="434" cy="386" r="1.5" fill="white"/><circle cx="482" cy="386" r="1.5" fill="white"/><circle cx="530" cy="386" r="1.5" fill="white"/><circle cx="578" cy="386" r="1.5" fill="white"/><circle cx="626" cy="386" r="1.5" fill="white"/><circle cx="674" cy="386" r="1.5" fill="white"/><circle cx="722" cy="386" r="1.5" fill="white"/><circle cx="770" cy="386" r="1.5" fill="white"/><circle cx="50" cy="434" r="1.5" fill="white"/><circle cx="98" cy="434" r="1.5" fill="white"/><circle cx="146" cy="434" r="1.5" fill="white"/><circle cx="194" cy="434" r="1.5" fill="white"/><circle cx="242" cy="434" r="1.5" fill="white"/><circle cx="290" cy="434" r="1.5" fill="white"/><circle cx="338" cy="434" r="1.5" fill="white"/><circle cx="386" cy="434" r="1.5" fill="white"/><circle cx="434" cy="434" r="1.5" fill="white"/><circle cx="482" cy="434" r="1.5" fill="white"/><circle cx="530" cy="434" r="1.5" fill="white"/><circle cx="578" cy="434" r="1.5" fill="white"/><circle cx="626" cy="434" r="1.5" fill="white"/><circle cx="674" cy="434" r="1.5" fill="white"/><circle cx="722" cy="434" r="1.5" fill="white"/><circle cx="770" cy="434" r="1.5" fill="white"/><circle cx="50" cy="482" r="1.5" fill="white"/><circle cx="98" cy="482" r="1.5" fill="white"/><circle cx="146" cy="482" r="1.5" fill="white"/><circle cx="194" cy="482" r="1.5" fill="white"/><circle cx="242" cy="482" r="1.5" fill="white"/><circle cx="290" cy="482" r="1.5" fill="white"/><circle cx="338" cy="482" r="1.5" fill="white"/><circle cx="386" cy="482" r="1.5" fill="white"/><circle cx="434" cy="482" r="1.5" fill="white"/><circle cx="482" cy="482" r="1.5" fill="white"/><circle cx="530" cy="482" r="1.5" fill="white"/><circle cx="578" cy="482" r="1.5" fill="white"/><circle cx="626" cy="482" r="1.5" fill="white"/><circle cx="674" cy="482" r="1.5" fill="white"/><circle cx="722" cy="482" r="1.5" fill="white"/><circle cx="770" cy="482" r="1.5" fill="white"/><circle cx="50" cy="530" r="1.5" fill="white"/><circle cx="98" cy="530" r="1.5" fill="white"/><circle cx="146" cy="530" r="1.5" fill="white"/><circle cx="194" cy="530" r="1.5" fill="white"/><circle cx="242" cy="530" r="1.5" fill="white"/><circle cx="290" cy="530" r="1.5" fill="white"/><circle cx="338" cy="530" r="1.5" fill="white"/><circle cx="386" cy="530" r="1.5" fill="white"/><circle cx="434" cy="530" r="1.5" fill="white"/><circle cx="482" cy="530" r="1.5" fill="white"/><circle cx="530" cy="530" r="1.5" fill="white"/><circle cx="578" cy="530" r="1.5" fill="white"/><circle cx="626" cy="530" r="1.5" fill="white"/><circle cx="674" cy="530" r="1.5" fill="white"/><circle cx="722" cy="530" r="1.5" fill="white"/><circle cx="770" cy="530" r="1.5" fill="white"/><circle cx="50" cy="578" r="1.5" fill="white"/><circle cx="98" cy="578" r="1.5" fill="white"/><circle cx="146" cy="578" r="1.5" fill="white"/><circle cx="194" cy="578" r="1.5" fill="white"/><circle cx="242" cy="578" r="1.5" fill="white"/><circle cx="290" cy="578" r="1.5" fill="white"/><circle cx="338" cy="578" r="1.5" fill="white"/><circle cx="386" cy="578" r="1.5" fill="white"/><circle cx="434" cy="578" r="1.5" fill="white"/><circle cx="482" cy="578" r="1.5" fill="white"/><circle cx="530" cy="578" r="1.5" fill="white"/><circle cx="578" cy="578" r="1.5" fill="white"/><circle cx="626" cy="578" r="1.5" fill="white"/><circle cx="674" cy="578" r="1.5" fill="white"/><circle cx="722" cy="578" r="1.5" fill="white"/><circle cx="770" cy="578" r="1.5" fill="white"/>
  </g>
  <text x="400" y="285" text-anchor="middle" fill="white" opacity="0.6" font-family="monospace" font-size="16" letter-spacing="4">NULL_STORE</text>
  <text x="400" y="320" text-anchor="middle" fill="white" opacity="0.3" font-family="monospace" font-size="11" letter-spacing="2">PROJECT COVER</text>
</svg>